<?xml version="1.0" encoding="UTF-8"?>
<svg xmlns="http://www.w3.org/2000/svg" xmlns:xlink="http://www.w3.org/1999/xlink" viewBox="0 0 20 20" width="20px" height="20px">
<g id="surface150745044">
<path style=" stroke:none;fill-rule:nonzero;fill:rgb(0%,80.000001%,94.901961%);fill-opacity:1;" d="M 10 15.300781 C 7.074219 15.300781 4.699219 12.925781 4.699219 10 C 4.699219 7.074219 7.074219 4.699219 10 4.699219 C 12.925781 4.699219 15.300781 7.074219 15.300781 10 C 15.300781 12.925781 12.925781 15.300781 10 15.300781 Z M 10 15.300781 "/>
<path style=" stroke:none;fill-rule:nonzero;fill:rgb(100%,100%,100%);fill-opacity:1;" d="M 10 2.523438 C 5.878906 2.523438 2.523438 5.878906 2.523438 10 C 2.523438 14.121094 5.878906 17.476562 10 17.476562 C 14.121094 17.476562 17.476562 14.121094 17.476562 10 C 17.476562 5.878906 14.121094 2.523438 10 2.523438 Z M 10 3.769531 C 13.449219 3.769531 16.230469 6.550781 16.230469 10 C 16.230469 13.449219 13.449219 16.230469 10 16.230469 C 6.550781 16.230469 3.769531 13.449219 3.769531 10 C 3.769531 6.550781 6.550781 3.769531 10 3.769531 Z M 12.609375 6.300781 C 12.515625 6.316406 12.4375 6.363281 12.375 6.457031 L 9.320312 10.992188 L 7.878906 9.570312 C 7.753906 9.382812 7.515625 9.371094 7.390625 9.492188 L 6.828125 10.058594 C 6.703125 10.246094 6.703125 10.5 6.828125 10.625 L 9.007812 12.804688 C 9.132812 12.867188 9.304688 13 9.492188 13 C 9.617188 13 9.816406 12.933594 9.941406 12.746094 L 13.679688 7.253906 C 13.804688 7.066406 13.734375 6.890625 13.484375 6.769531 L 12.863281 6.320312 C 12.800781 6.289062 12.703125 6.285156 12.609375 6.300781 Z M 12.609375 6.300781 "/>
</g>
</svg>
